<svg width="11" height="9" viewBox="0 0 11 9" fill="none" xmlns="http://www.w3.org/2000/svg">
<path fill-rule="evenodd" clip-rule="evenodd" d="M6.08508 0.118809C6.16126 0.0427317 6.26451 0 6.37217 0C6.47982 0 6.58308 0.0427317 6.65925 0.118809L10.4444 3.91048C10.5205 3.98665 10.5632 4.0899 10.5632 4.19756C10.5632 4.30522 10.5205 4.40847 10.4444 4.48464L6.65925 8.27631C6.58267 8.35035 6.48007 8.39134 6.37355 8.39047C6.26703 8.38959 6.16512 8.34692 6.08976 8.27163C6.0144 8.19634 5.97163 8.09447 5.97065 7.98795C5.96968 7.88144 6.01058 7.7788 6.08454 7.70214L9.17692 4.60435L0.406792 4.61031C0.299048 4.61045 0.195659 4.56779 0.119371 4.4917C0.043083 4.41562 0.000144021 4.31234 3.6163e-07 4.2046C-0.000143297 4.09686 0.0425201 3.99347 0.118605 3.91718C0.19469 3.84089 0.297964 3.79795 0.405709 3.79781L9.17746 3.79239L6.084 0.692976C6.00792 0.616804 5.96519 0.513549 5.96519 0.405892C5.96519 0.298236 6.00792 0.194981 6.084 0.118809" fill="#313131"/>
</svg>
