<svg width="15" height="15" viewBox="0 0 15 15" fill="none" xmlns="http://www.w3.org/2000/svg">
<path fill-rule="evenodd" clip-rule="evenodd" d="M6.5725 2.79334C6.48461 2.70556 6.36547 2.65625 6.24125 2.65625C6.11703 2.65625 5.99789 2.70556 5.91 2.79334L1.5425 7.16834C1.45472 7.25623 1.40541 7.37537 1.40541 7.49959C1.40541 7.62381 1.45472 7.74295 1.5425 7.83084L5.91 12.2058C5.99837 12.2913 6.11675 12.3386 6.23966 12.3376C6.36256 12.3365 6.48016 12.2873 6.56711 12.2004C6.65406 12.1136 6.70341 11.996 6.70454 11.8731C6.70566 11.7502 6.65847 11.6318 6.57312 11.5433L3.005 7.96896L13.1244 7.97584C13.2487 7.976 13.368 7.92678 13.456 7.83899C13.544 7.75119 13.5936 7.63203 13.5937 7.50771C13.5939 7.38339 13.5447 7.2641 13.4569 7.17607C13.3691 7.08805 13.2499 7.0385 13.1256 7.03834L3.00437 7.03209L6.57375 3.45584C6.66153 3.36795 6.71084 3.24881 6.71084 3.12459C6.71084 3.00037 6.66153 2.88123 6.57375 2.79334" fill="#313131"/>
</svg>
