<svg width="20" height="20" viewBox="0 0 20 20" fill="none" xmlns="http://www.w3.org/2000/svg">
<path d="M17.9192 15.317H16.0183C15.2992 15.317 15.0825 14.7345 13.7933 13.4445C12.6667 12.3586 12.1908 12.2236 11.9058 12.2236C11.5117 12.2236 11.4042 12.332 11.4042 12.8745V14.5845C11.4042 15.047 11.2542 15.3178 10.0458 15.3178C8.87358 15.239 7.7368 14.8829 6.72914 14.2788C5.72148 13.6746 4.87177 12.8397 4.25 11.8428C2.77366 10.0053 1.74642 7.8487 1.25 5.54446C1.25 5.25946 1.35833 5.00113 1.90167 5.00113H3.80167C4.29 5.00113 4.46583 5.21863 4.6575 5.72113C5.58 8.43613 7.15417 10.7978 7.79333 10.7978C8.03833 10.7978 8.145 10.6895 8.145 10.0786V7.28196C8.06417 6.00613 7.38667 5.89863 7.38667 5.43696C7.39524 5.31516 7.45095 5.2015 7.54198 5.12012C7.63301 5.03875 7.75217 4.99606 7.87417 5.00113H10.8608C11.2692 5.00113 11.4042 5.20446 11.4042 5.6928V9.4678C11.4042 9.8753 11.5792 10.0103 11.7025 10.0103C11.9475 10.0103 12.1358 9.8753 12.585 9.42696C13.5478 8.25279 14.3344 6.9446 14.92 5.54363C14.9799 5.37543 15.0933 5.23144 15.2427 5.13364C15.3921 5.03585 15.5694 4.9896 15.7475 5.00196H17.6483C18.2183 5.00196 18.3392 5.28696 18.2183 5.69363C17.527 7.24231 16.6715 8.71238 15.6667 10.0786C15.4617 10.3911 15.38 10.5536 15.6667 10.9203C15.855 11.2053 16.5217 11.762 16.9692 12.2911C17.6208 12.9411 18.1617 13.6928 18.5708 14.5161C18.7342 15.0461 18.4617 15.317 17.9192 15.317Z" fill="#73675B"/>
</svg>
