<svg width="20" height="20" viewBox="0 0 20 20" fill="none" xmlns="http://www.w3.org/2000/svg">
<path d="M8.33073 12.5013L12.6557 10.0013L8.33073 7.5013V12.5013ZM17.9641 5.9763C18.0724 6.36797 18.1474 6.89297 18.1974 7.55964C18.2557 8.2263 18.2807 8.8013 18.2807 9.3013L18.3307 10.0013C18.3307 11.8263 18.1974 13.168 17.9641 14.0263C17.7557 14.7763 17.2724 15.2596 16.5224 15.468C16.1307 15.5763 15.4141 15.6513 14.3141 15.7013C13.2307 15.7596 12.2391 15.7846 11.3224 15.7846L9.9974 15.8346C6.50573 15.8346 4.33073 15.7013 3.4724 15.468C2.7224 15.2596 2.23906 14.7763 2.03073 14.0263C1.9224 13.6346 1.8474 13.1096 1.7974 12.443C1.73906 11.7763 1.71406 11.2013 1.71406 10.7013L1.66406 10.0013C1.66406 8.1763 1.7974 6.83464 2.03073 5.9763C2.23906 5.2263 2.7224 4.74297 3.4724 4.53464C3.86406 4.4263 4.58073 4.3513 5.68073 4.3013C6.76406 4.24297 7.75573 4.21797 8.6724 4.21797L9.9974 4.16797C13.4891 4.16797 15.6641 4.3013 16.5224 4.53464C17.2724 4.74297 17.7557 5.2263 17.9641 5.9763Z" fill="white"/>
</svg>
